# xmcd
# 
# Track frame offsets:
#     150
#     24336
#     41855
#     53778
#     73198
#     90164
#     116842
#     128429
#     150975
#     169276
#     187197
#     209634
#     232159
#     249475
# 
# Disc length: 3569
# 
# Revision: 5
# Processed by: cddbd v1.5.2PL0 Copyright (c) Steve Scherf et al.
# Submitted via: fre:ac v1.0.27
# 
DISCID=c30def0e
DTITLE=安全地帯 - 安全地帯VI LIVE 〜月に濡れたふたり〜
DYEAR=2005
DGENRE=J-Pop
TTITLE0=月に濡れたふたり
TTITLE1=悲しきコヨーテ
TTITLE2=No Problem
TTITLE3=熱視線
TTITLE4=夢になれ
TTITLE5=じれったい
TTITLE6=今夜はYES
TTITLE7=Too Late Too Late
TTITLE8=ワインレッドの心
TTITLE9=真夜中すぎの恋
TTITLE10=I Love Youからはじめよう
TTITLE11=悲しみにさよなら
TTITLE12=ほゝえみ
TTITLE13=あなたに
EXTD=
EXTT0=
EXTT1=
EXTT2=
EXTT3=
EXTT4=
EXTT5=
EXTT6=
EXTT7=
EXTT8=
EXTT9=
EXTT10=
EXTT11=
EXTT12=
EXTT13=
PLAYORDER=
